<?xml version="1.0" encoding="UTF-8" standalone="no"?><svg xmlns="http://www.w3.org/2000/svg" xmlns:xlink= "http://www.w3.org/1999/xlink" width="600" height="390" aria-label="A chart." style="overflow: hidden;"><defs id="_ABSTRACT_RENDERER_ID_22"><clipPath id="_ABSTRACT_RENDERER_ID_23"><rect x="115" y="75" width="371" height="241"></rect></clipPath><filter id="_ABSTRACT_RENDERER_ID_24"><feGaussianBlur in="SourceAlpha" stdDeviation="2"></feGaussianBlur><feOffset dx="1" dy="1"></feOffset><feComponentTransfer><feFuncA type="linear" slope="0.1"></feFuncA></feComponentTransfer><feMerge><feMergeNode></feMergeNode><feMergeNode in="SourceGraphic"></feMergeNode></feMerge></filter></defs><rect x="0" y="0" width="600" height="390" stroke="none" stroke-width="0" fill="#ffffff"></rect><g><text text-anchor="start" x="115" y="52.05" font-family="Arial" font-size="13" font-weight="bold" stroke="none" stroke-width="0" fill="#000000">Baud Rate vs Round-Trip Latency</text><rect x="115" y="41" width="371" height="13" stroke="none" stroke-width="0" fill-opacity="0" fill="#ffffff"></rect></g><g><rect x="499" y="75" width="88" height="13" stroke="none" stroke-width="0" fill-opacity="0" fill="#ffffff"></rect><g><rect x="499" y="75" width="88" height="13" stroke="none" stroke-width="0" fill-opacity="0" fill="#ffffff"></rect><g><text text-anchor="start" x="530" y="86.05" font-family="Arial" font-size="13" stroke="none" stroke-width="0" fill="#222222">Series1</text></g><path d="M499,81.5L525,81.5" stroke="none" stroke-width="0" fill-opacity="1" fill="none"></path><circle cx="512" cy="81.5" r="4.5" stroke="none" stroke-width="0" fill="#3366cc"></circle></g></g><g><rect x="115" y="75" width="371" height="241" stroke="none" stroke-width="0" fill-opacity="0" fill="#ffffff"></rect><g clip-path="url(https://www.rapidtables.com/tools/scatter-plot.html#_ABSTRACT_RENDERER_ID_23)"><g><rect x="115" y="75" width="1" height="241" stroke="none" stroke-width="0" fill="#cccccc"></rect><rect x="189" y="75" width="1" height="241" stroke="none" stroke-width="0" fill="#cccccc"></rect><rect x="263" y="75" width="1" height="241" stroke="none" stroke-width="0" fill="#cccccc"></rect><rect x="337" y="75" width="1" height="241" stroke="none" stroke-width="0" fill="#cccccc"></rect><rect x="411" y="75" width="1" height="241" stroke="none" stroke-width="0" fill="#cccccc"></rect><rect x="485" y="75" width="1" height="241" stroke="none" stroke-width="0" fill="#cccccc"></rect><rect x="115" y="315" width="371" height="1" stroke="none" stroke-width="0" fill="#cccccc"></rect><rect x="115" y="255" width="371" height="1" stroke="none" stroke-width="0" fill="#cccccc"></rect><rect x="115" y="195" width="371" height="1" stroke="none" stroke-width="0" fill="#cccccc"></rect><rect x="115" y="135" width="371" height="1" stroke="none" stroke-width="0" fill="#cccccc"></rect><rect x="115" y="75" width="371" height="1" stroke="none" stroke-width="0" fill="#cccccc"></rect><rect x="115" y="285" width="371" height="1" stroke="none" stroke-width="0" fill="#ebebeb"></rect><rect x="115" y="225" width="371" height="1" stroke="none" stroke-width="0" fill="#ebebeb"></rect><rect x="115" y="165" width="371" height="1" stroke="none" stroke-width="0" fill="#ebebeb"></rect><rect x="115" y="105" width="371" height="1" stroke="none" stroke-width="0" fill="#ebebeb"></rect></g><g><rect x="115" y="75" width="1" height="241" stroke="none" stroke-width="0" fill="#333333"></rect><rect x="115" y="315" width="371" height="1" stroke="none" stroke-width="0" fill="#333333"></rect></g><g><path d="M115.5,113.53522104956L119.2888,117.79931750882002L123.0776,121.97338580222001L126.8664,126.05932670078002L130.6552,130.05900084422L134.444,133.97422958864001L138.2328,137.80679583554002L142.0216,141.5584448441L145.81040000000002,145.23088502558002L149.5992,148.82578872146L153.388,152.34479296496002L157.17680000000001,155.78950022648002L160.9656,159.1614791435L164.7544,162.46226523446L168.5432,165.6933615986L172.332,168.8562395999L176.1208,171.95233953746L179.9096,174.98307130118L183.6984,177.94981501382L187.4872,180.85392165962003L191.276,183.69671369936L195.0648,186.47948567258L198.8536,189.20350478708L202.6424,191.87001149606002L206.4312,194.48022006302L210.22,197.03531911448L214.0088,199.5364721816L217.7976,201.98481822956L221.5864,204.38147217674L225.3752,206.72752540202L229.164,209.02404624194003L232.9528,211.2720804773L236.7416,213.47265180914002L240.5304,215.62676232500002L244.3192,217.73539295534L248.108,219.79950392018L251.89679999999998,221.82003516626L255.6856,223.79790679532L259.4744,225.73401948272L263.2632,227.62925488802L267.052,229.48447605607998L270.8408,231.30052781024L274.6296,233.07823713704L278.4184,234.81841356296002L282.2072,236.52184952264L285.996,238.18932072014002L289.7024347825984,239.78647155242L293.4088695652264,241.35062706242002L297.1153043478248,242.88246889592L300.8217391304232,244.38266461694002L304.5281739130512,245.85186799808002L308.2346086956496,247.29071930594L311.941043478248,248.69984557988L315.647478260876,250.07986090538L319.3539130434744,251.43136668146002L323.06034782607276,252.75495188318L326.7667826087008,254.05119331778L330.47321739129916,255.32065587649998L334.1796521739272,256.563892780514L337.88608695652556,257.78144582201L341.592521739124,258.97384560044L345.29895652175196,260.141611753658L349.0053913043504,261.285253184378L352.7118260869488,262.40526828197L356.4182608695768,263.502145139648L360.1246956521752,264.57636176716403L363.8311304347736,265.628386299146L367.5375652174016,266.65867719908L371.244,267.667683459116L374.9504347825984,268.655844795752L378.6568695652264,269.623591841426L382.3633043478248,270.571346332202L386.0697391304232,271.499521291568L389.7761739130512,272.4085212104L393.4826086956496,273.298742223254L397.189043478248,274.17057228101L400.895478260876,275.024391319904L404.6019130434744,275.86057142714003L408.3083478260728,276.67947700301L412.01478260876,277.481464919708L415.72121739124003,278.266884676868L419.427652174016,279.036078553844L423.134086956496,279.789381758888L426.840521739272,280.52712257525L430.546956521752,281.249622504194L434.253391304232,281.957196405146L437.95982608700797,282.650152632896L441.666260869488,283.328793171974L445.372695652264,283.993413768242L449.079130434744,284.644304057804L452.78556521752,285.281747693192L456.492,285.90602246702L460.118,286.504267709492L463.74399999999997,287.090419364012L467.37,287.664721903676L470.996,288.227414859548L474.622,288.778732920524L478.248,289.318906031264L481.87399999999997,289.848159488054L485.5,290.366714032802" stroke="#3366cc" stroke-width="2" stroke-opacity="0.5" fill-opacity="1" fill="none"></path></g></g><g><circle cx="172.332" cy="132.5" r="4.5" stroke="none" stroke-width="0" fill="#3366cc"></circle><circle cx="229.164" cy="220.7" r="4.5" stroke="none" stroke-width="0" fill="#3366cc"></circle><circle cx="285.996" cy="253.1" r="4.5" stroke="none" stroke-width="0" fill="#3366cc"></circle><circle cx="456.492" cy="282.5" r="4.5" stroke="none" stroke-width="0" fill="#3366cc"></circle></g><g><g><text text-anchor="middle" x="115.5" y="335.05" font-family="Arial" font-size="13" stroke="none" stroke-width="0" fill="#444444">0</text></g><g><text text-anchor="middle" x="189.5" y="335.05" font-family="Arial" font-size="13" stroke="none" stroke-width="0" fill="#444444">25,000</text></g><g><text text-anchor="middle" x="263.5" y="335.05" font-family="Arial" font-size="13" stroke="none" stroke-width="0" fill="#444444">50,000</text></g><g><text text-anchor="middle" x="337.5" y="335.05" font-family="Arial" font-size="13" stroke="none" stroke-width="0" fill="#444444">75,000</text></g><g><text text-anchor="middle" x="411.5" y="335.05" font-family="Arial" font-size="13" stroke="none" stroke-width="0" fill="#444444">100,000</text></g><g><text text-anchor="middle" x="485.5" y="335.05" font-family="Arial" font-size="13" stroke="none" stroke-width="0" fill="#444444">125,000</text></g><g><text text-anchor="end" x="102" y="320.05" font-family="Arial" font-size="13" stroke="none" stroke-width="0" fill="#444444">0</text></g><g><text text-anchor="end" x="102" y="260.05" font-family="Arial" font-size="13" stroke="none" stroke-width="0" fill="#444444">1,000</text></g><g><text text-anchor="end" x="102" y="200.05" font-family="Arial" font-size="13" stroke="none" stroke-width="0" fill="#444444">2,000</text></g><g><text text-anchor="end" x="102" y="140.05" font-family="Arial" font-size="13" stroke="none" stroke-width="0" fill="#444444">3,000</text></g><g><text text-anchor="end" x="102" y="80.05" font-family="Arial" font-size="13" stroke="none" stroke-width="0" fill="#444444">4,000</text></g></g></g><g><g><text text-anchor="middle" x="300.5" y="368.05" font-family="Arial" font-size="13" font-style="italic" stroke="none" stroke-width="0" fill="#222222">Baud Rate (bps)</text><rect x="115" y="357" width="371" height="13" stroke="none" stroke-width="0" fill-opacity="0" fill="#ffffff"></rect></g><g><text text-anchor="middle" x="39.05" y="195.5" font-family="Arial" font-size="13" font-style="italic" transform="rotate(-90 39.05 195.5)" stroke="none" stroke-width="0" fill="#222222">Time (μs)</text><path d="M27.999999999999996,316L28.00000000000001,75L41.00000000000001,75L40.99999999999999,316Z" stroke="none" stroke-width="0" fill-opacity="0" fill="#ffffff"></path></g></g><g></g></svg>